<svg width="24" height="23" viewBox="0 0 24 23" fill="none" xmlns="http://www.w3.org/2000/svg">
<path d="M17 1.84619H7C4.23858 1.84619 2 3.91257 2 6.46158V15.6923C2 18.2414 4.23858 20.3077 7 20.3077H17C19.7614 20.3077 22 18.2414 22 15.6923V6.46158C22 3.91257 19.7614 1.84619 17 1.84619Z" stroke="#242424" stroke-linecap="round" stroke-linejoin="round"/>
<path d="M16 10.4954C16.1234 11.2637 15.9813 12.0483 15.5938 12.7376C15.2063 13.427 14.5931 13.986 13.8416 14.3351C13.0901 14.6843 12.2384 14.8058 11.4078 14.6825C10.5771 14.5591 9.80976 14.1971 9.21484 13.6479C8.61992 13.0987 8.22773 12.3904 8.09407 11.6236C7.9604 10.8569 8.09207 10.0707 8.47033 9.37701C8.84859 8.6833 9.45419 8.11735 10.201 7.75966C10.9478 7.40197 11.7978 7.27075 12.63 7.38467C13.4789 7.50087 14.2649 7.86602 14.8717 8.42618C15.4785 8.98634 15.8741 9.71182 16 10.4954Z" stroke="#242424" stroke-linecap="round" stroke-linejoin="round"/>
<path d="M17.5 6H17.51" stroke="#242424" stroke-linecap="round" stroke-linejoin="round"/>
</svg>
